<svg height="100%" width="100%" xmlns="http://www.w3.org/2000/svg" classname="w-6 h-6" viewBox="0 0 512 512" fill="yellow">
  <path fill="#FAAD14" strokelinecap="round" strokelinejoin="round" d="M171.328 163.808 241.216 25.344A16.512 16.512 0 0 1 256 16c5.856 0 11.712 3.104 14.88 9.344l69.888 138.464 156.736 22.272A17.184 17.184 0 0 1 512 202.24a17.536 17.536 0 0 1 -5.44 14.24l-112.736 107.392 26.56 151.36c2.496 14.176 -11.52 25.28 -23.872 18.944L256 421.984l-140.448 72.192a16.64 16.64 0 0 1 -4.672 1.6c-10.944 1.92 -21.376 -8.128 -19.2 -20.544l26.56 -151.36L5.536 216.48a17.6 17.6 0 0 1 -5.504 -12.896 18.56 18.56 0 0 1 2.72 -9.664 16.416 16.416 0 0 1 11.84 -7.84l156.736 -22.272zM256 384.864a16 16 0 0 1 7.424 1.792l117.952 60.608 -22.208 -126.624a18.08 18.08 0 0 1 5.184 -16.16l93.024 -88.64 -129.664 -18.432a16.8 16.8 0 0 1 -12.576 -9.216L256.032 71.136 256 71.232v313.6z"></path>
</svg>
