<svg xmlns="http://www.w3.org/2000/svg" xmlns:xlink="http://www.w3.org/1999/xlink" width="500" zoomAndPan="magnify" viewBox="0 0 375 374.999991" height="500" preserveAspectRatio="xMidYMid meet" version="1.0"><defs><g/><clipPath id="719c87bfed"><path d="M 93.296875 95.398438 L 287.546875 95.398438 L 287.546875 279.898438 L 93.296875 279.898438 Z M 93.296875 95.398438 " clip-rule="nonzero"/></clipPath><clipPath id="9c5ded1f19"><path d="M 287.636719 98.398438 L 287.636719 247.722656 C 287.636719 249.5 286.46875 251.070312 284.761719 251.574219 L 193.34375 278.738281 C 191.464844 279.296875 189.46875 279.296875 187.589844 278.738281 L 96.171875 251.574219 C 94.464844 251.070312 93.296875 249.5 93.296875 247.722656 L 93.296875 98.398438 C 93.296875 97.601562 93.613281 96.839844 94.175781 96.277344 C 94.738281 95.714844 95.5 95.398438 96.296875 95.398438 L 284.640625 95.398438 C 285.433594 95.398438 286.199219 95.714844 286.761719 96.277344 C 287.324219 96.839844 287.636719 97.601562 287.636719 98.398438 Z M 287.636719 98.398438 " clip-rule="nonzero"/></clipPath><clipPath id="1d51d5097b"><path d="M 84.839844 197.691406 L 290.160156 197.691406 L 290.160156 235.996094 L 84.839844 235.996094 Z M 84.839844 197.691406 " clip-rule="nonzero"/></clipPath><clipPath id="c7d91217f6"><path d="M 72.519531 125.417969 L 110.300781 125.417969 L 110.300781 204.261719 L 72.519531 204.261719 Z M 72.519531 125.417969 " clip-rule="nonzero"/></clipPath><clipPath id="42d57c7142"><path d="M 259.226562 136.09375 L 297.003906 136.09375 L 297.003906 204.261719 L 259.226562 204.261719 Z M 259.226562 136.09375 " clip-rule="nonzero"/></clipPath><clipPath id="529c81df88"><path d="M 180.519531 247.890625 L 194.5 247.890625 L 194.5 261.195312 L 180.519531 261.195312 Z M 180.519531 247.890625 " clip-rule="nonzero"/></clipPath><clipPath id="fba6dee206"><path d="M 187.5 247.890625 L 189.148438 252.972656 L 194.480469 252.972656 L 190.164062 256.113281 L 191.8125 261.195312 L 187.5 258.054688 L 183.1875 261.195312 L 184.835938 256.113281 L 180.519531 252.972656 L 185.851562 252.972656 Z M 187.5 247.890625 " clip-rule="nonzero"/></clipPath><clipPath id="3f18e99067"><path d="M 162.222656 247.890625 L 173.574219 247.890625 L 173.574219 258.699219 L 162.222656 258.699219 Z M 162.222656 247.890625 " clip-rule="nonzero"/></clipPath><clipPath id="9e6fff428d"><path d="M 167.890625 247.890625 L 169.226562 252.019531 L 173.558594 252.019531 L 170.054688 254.570312 L 171.394531 258.699219 L 167.890625 256.148438 L 164.386719 258.699219 L 165.722656 254.570312 L 162.222656 252.019531 L 166.550781 252.019531 Z M 167.890625 247.890625 " clip-rule="nonzero"/></clipPath><clipPath id="828b16f250"><path d="M 201.230469 247.890625 L 212.582031 247.890625 L 212.582031 258.699219 L 201.230469 258.699219 Z M 201.230469 247.890625 " clip-rule="nonzero"/></clipPath><clipPath id="8f2ef257b1"><path d="M 206.898438 247.890625 L 208.234375 252.019531 L 212.566406 252.019531 L 209.0625 254.570312 L 210.402344 258.699219 L 206.898438 256.148438 L 203.394531 258.699219 L 204.730469 254.570312 L 201.230469 252.019531 L 205.558594 252.019531 Z M 206.898438 247.890625 " clip-rule="nonzero"/></clipPath></defs><g clip-path="url(#719c87bfed)"><g clip-path="url(#9c5ded1f19)"><path stroke-linecap="butt" transform="matrix(0.75, 0, 0, 0.75, 93.29534, 95.397255)" fill="none" stroke-linejoin="miter" d="M 259.121839 4.001576 L 259.121839 203.100535 C 259.121839 205.470327 257.564547 207.564077 255.288505 208.235952 L 133.39788 244.454702 C 130.892672 245.199493 128.231214 245.199493 125.726005 244.454702 L 3.83538 208.235952 C 1.559338 207.564077 0.0020467 205.470327 0.0020467 203.100535 L 0.0020467 4.001576 C 0.0020467 2.939076 0.423922 1.923451 1.173922 1.173451 C 1.923922 0.423451 2.939547 0.00157622 4.002047 0.00157622 L 255.127047 0.00157622 C 256.184339 0.00157622 257.205172 0.423451 257.955172 1.173451 C 258.705172 1.923451 259.121839 2.939076 259.121839 4.001576 Z M 259.121839 4.001576 " stroke="#000000" stroke-width="20" stroke-opacity="1" stroke-miterlimit="4"/></g></g><g clip-path="url(#1d51d5097b)"><path fill="#ffffff" d="M 84.839844 197.691406 L 290.128906 197.691406 L 290.128906 235.996094 L 84.839844 235.996094 Z M 84.839844 197.691406 " fill-opacity="1" fill-rule="nonzero"/></g><g clip-path="url(#c7d91217f6)"><path fill="#ffffff" d="M 72.519531 125.417969 L 110.300781 125.417969 L 110.300781 204.222656 L 72.519531 204.222656 Z M 72.519531 125.417969 " fill-opacity="1" fill-rule="nonzero"/></g><g clip-path="url(#42d57c7142)"><path fill="#ffffff" d="M 259.226562 136.09375 L 297.003906 136.09375 L 297.003906 204.273438 L 259.226562 204.273438 Z M 259.226562 136.09375 " fill-opacity="1" fill-rule="nonzero"/></g><path fill="#040327" d="M 275.105469 194.535156 C 283.625 194.992188 292.160156 195.054688 301.003906 195.84375 C 299.890625 196.464844 298.976562 196.390625 298.097656 196.414062 C 273.484375 197.253906 248.859375 197.675781 224.222656 197.652344 C 185.113281 197.613281 146.003906 197.699219 106.882812 197.527344 C 90.085938 197.453125 73.292969 197.117188 56.507812 196.449219 C 55.925781 196.425781 55.308594 196.523438 54.800781 196.042969 C 63.296875 195.335938 71.796875 194.90625 80.316406 194.792969 C 80.390625 194.210938 79.882812 194.3125 79.613281 194.175781 C 75.714844 192.382812 72.636719 189.648438 70.324219 186.0625 C 69.878906 185.367188 69.332031 184.960938 68.566406 184.6875 C 64.546875 183.265625 60.625 181.585938 56.804688 179.667969 C 56.074219 179.296875 55.332031 178.925781 54.652344 178.480469 C 53.675781 177.847656 52.363281 177.328125 52.402344 175.957031 C 52.453125 174.535156 53.886719 174.398438 54.886719 173.992188 C 56.210938 173.445312 56.433594 172.617188 55.804688 171.429688 C 55.308594 170.527344 54.8125 169.625 54.292969 168.746094 C 50.941406 163.070312 50.992188 157.21875 53.402344 151.257812 C 54.304688 149.007812 55.359375 146.828125 56.695312 144.8125 C 57.238281 143.996094 57.3125 143.367188 56.570312 142.6875 C 56.273438 142.414062 56.050781 142.054688 55.804688 141.722656 C 53.738281 138.914062 54.691406 136.117188 58.066406 135.203125 C 60.601562 134.523438 63.238281 134.324219 65.832031 133.964844 C 74.613281 132.753906 83.457031 132.320312 92.300781 131.863281 C 93.785156 131.789062 95.097656 131.195312 96.421875 130.675781 C 108.675781 125.828125 121.144531 121.699219 133.984375 118.65625 C 144.273438 116.21875 154.601562 115.550781 165.101562 116.539062 C 173.351562 117.320312 181.601562 118.0625 189.601562 120.363281 C 197 122.488281 203.824219 126 210.765625 129.242188 C 217.753906 132.507812 224.628906 136.007812 231.394531 139.707031 C 232.113281 140.101562 232.816406 140.199219 233.609375 140.175781 C 242.882812 139.914062 252.160156 139.730469 261.425781 140.136719 C 274.957031 140.730469 288.265625 142.5625 300.867188 147.894531 C 307.632812 150.761719 313.929688 154.421875 319.445312 159.335938 C 320.359375 160.148438 321.273438 161.003906 322.101562 161.917969 C 323.6875 163.675781 324.121094 165.714844 323.203125 167.941406 C 322.597656 169.414062 321.878906 170.835938 321.238281 172.285156 C 319.667969 175.785156 319.183594 179.136719 322.101562 182.3125 C 323.425781 183.761719 322.980469 185.28125 321.136719 186.394531 C 318.988281 187.683594 316.550781 188.175781 314.136719 188.671875 C 308.523438 189.835938 302.820312 190.21875 297.105469 190.5 C 292.480469 190.738281 287.84375 190.796875 283.207031 190.910156 C 282.140625 190.933594 281.226562 191.167969 280.335938 191.800781 C 278.738281 192.9375 276.898438 193.632812 275.078125 194.523438 Z M 194.488281 141.808594 C 196.304688 144.8125 196.910156 147.929688 197.503906 151.046875 C 197.667969 151.875 198.023438 152.246094 198.78125 152.53125 C 203.863281 154.410156 207.523438 157.851562 209.6875 162.835938 C 211.433594 166.855469 212.679688 171.046875 213.941406 175.226562 C 214.164062 175.992188 214.460938 176.339844 215.292969 176.339844 C 218.332031 176.339844 221.375 176.378906 224.40625 176.476562 C 225.335938 176.5 225.53125 176.140625 225.496094 175.300781 C 225.433594 173.917969 225.53125 172.53125 225.707031 171.144531 C 226.992188 161.027344 232.382812 154.078125 242.007812 150.8125 C 251.53125 147.570312 260.078125 149.910156 267.066406 156.984375 C 273.460938 163.464844 275.089844 171.589844 273.84375 180.410156 C 273.445312 183.203125 272.53125 185.875 271.503906 188.609375 C 271.902344 188.648438 272.148438 188.683594 272.394531 188.683594 C 278.789062 188.757812 285.171875 188.574219 291.554688 188.289062 C 295.917969 188.101562 300.285156 187.707031 304.628906 187.074219 C 305.21875 186.988281 306.246094 187.136719 305.960938 185.914062 C 305.738281 184.960938 306.171875 183.648438 304.40625 183.675781 C 302.402344 183.699219 300.382812 183.550781 298.382812 183.425781 C 296.636719 183.316406 294.90625 183.105469 293.296875 182.289062 C 291.332031 181.289062 290.773438 180.175781 291.15625 178.035156 C 291.417969 176.5625 291.898438 175.152344 292.40625 173.753906 C 294.003906 169.277344 297.230469 167.199219 301.90625 167.027344 C 306.59375 166.855469 311.28125 167.050781 315.96875 167.078125 C 316.476562 167.078125 317.082031 166.953125 317.476562 167.546875 C 316.773438 167.855469 316.054688 167.917969 315.335938 167.96875 C 311.230469 168.238281 307.113281 168.398438 303.019531 168.882812 C 298.21875 169.453125 293.308594 174.683594 293.1875 179.507812 C 293.175781 180.1875 293.546875 180.519531 294.078125 180.792969 C 294.792969 181.164062 295.015625 180.605469 295.25 180.1875 C 296.15625 178.578125 296.984375 176.921875 297.910156 175.3125 C 299.023438 173.382812 300.644531 172.222656 302.933594 171.898438 C 306.703125 171.367188 310.515625 171.121094 314.300781 170.800781 C 318.554688 170.441406 317.824219 170.996094 319.394531 166.691406 C 319.445312 166.542969 319.445312 166.382812 319.492188 166.234375 C 320.023438 164.726562 319.542969 163.515625 318.378906 162.511719 C 316.785156 161.128906 315.25 159.667969 313.582031 158.382812 C 304.664062 151.53125 294.484375 147.421875 283.652344 144.765625 C 281.734375 144.292969 279.792969 143.910156 277.851562 143.492188 C 279.507812 144.304688 281.214844 144.851562 282.894531 145.445312 C 291.34375 148.414062 299 152.703125 305.355469 159.097656 C 306.347656 160.101562 307.285156 161.175781 307.832031 162.785156 C 307.027344 162.03125 306.421875 161.425781 305.777344 160.867188 C 299.890625 155.757812 293.148438 152.050781 285.988281 149.09375 C 273.917969 144.109375 261.238281 142.351562 248.300781 142.066406 C 231.765625 141.710938 215.230469 141.5625 198.679688 141.808594 C 197.355469 141.832031 196.035156 141.808594 194.476562 141.808594 Z M 65.164062 175.128906 C 65.265625 172.46875 65.402344 170.230469 65.90625 168.027344 C 69.347656 152.902344 87.304688 145.605469 99.882812 154.410156 C 107.710938 159.890625 111.039062 167.917969 111.324219 177.269531 C 111.375 178.8125 111.820312 179.085938 113.242188 179.109375 C 124.570312 179.308594 135.898438 179.570312 147.242188 179.851562 C 159.90625 180.175781 172.582031 180.65625 185.261719 180.632812 C 187.375 180.632812 189.480469 180.457031 191.570312 180.113281 C 192.113281 180.027344 192.890625 180.011719 192.855469 179.320312 C 192.816406 178.726562 192.089844 178.605469 191.519531 178.480469 C 188.292969 177.789062 185 177.527344 181.710938 177.34375 C 167.414062 176.539062 153.117188 175.84375 138.820312 175.054688 C 135.332031 174.855469 131.792969 174.929688 128.378906 174.050781 C 119.871094 171.839844 114.675781 162.4375 113.882812 156.871094 C 113.5 154.214844 114.367188 152.730469 116.765625 151.480469 C 117.730469 150.984375 118.746094 150.625 119.796875 150.367188 C 122.195312 149.761719 124.644531 149.378906 127.105469 149.230469 C 128.304688 149.15625 128.515625 148.671875 128.566406 147.660156 C 128.726562 144.527344 128.652344 141.363281 129.195312 138.257812 C 129.382812 137.207031 129.222656 136.859375 128.109375 136.652344 C 117.496094 134.683594 106.785156 133.804688 96.011719 133.71875 C 86.882812 133.644531 77.804688 134.511719 68.789062 135.882812 C 65.796875 136.339844 62.804688 136.847656 59.835938 137.46875 C 57.894531 137.875 57.484375 138.628906 58.398438 140.113281 C 59.75 142.304688 59.933594 144.640625 59.808594 147.101562 C 59.625 150.984375 58.140625 154.484375 56.59375 157.972656 C 56.0625 159.171875 55.617188 160.398438 55.878906 161.707031 C 56.976562 167.398438 60.800781 171.207031 65.191406 175.140625 Z M 157.988281 164.503906 C 157.988281 164.417969 157.988281 164.332031 158 164.246094 C 158.199219 164.21875 158.398438 164.183594 158.59375 164.183594 C 165.855469 164.367188 173.101562 164.910156 180.351562 165.394531 C 185.90625 165.765625 191.445312 166.261719 196.984375 166.71875 C 197.777344 166.78125 198.261719 166.71875 198.171875 165.703125 C 197.949219 163.03125 197.800781 160.359375 197.628906 157.6875 C 197.566406 156.738281 197.023438 156.242188 196.195312 155.871094 C 193.746094 154.769531 191.1875 154.015625 188.574219 153.460938 C 180.757812 151.800781 172.820312 151.109375 164.855469 150.566406 C 153.5625 149.785156 142.320312 149.945312 131.125 151.851562 C 129.890625 152.0625 129.777344 152.394531 130.125 153.507812 C 132.363281 160.71875 136.59375 166.78125 141.03125 172.742188 C 141.613281 173.53125 142.40625 173.507812 143.234375 173.53125 C 160.179688 173.964844 177.121094 174.421875 194.066406 174.855469 C 195.292969 174.894531 196.863281 175.523438 197.640625 174.792969 C 198.496094 173.992188 197.828125 172.34375 198.050781 171.082031 C 198.210938 170.179688 197.828125 169.808594 196.949219 169.660156 C 190 168.523438 183.011719 167.597656 176.023438 166.753906 C 170.011719 166.023438 164 165.257812 157.988281 164.515625 Z M 196.777344 151.851562 C 196.183594 148.746094 195.601562 145.851562 194.289062 143.132812 C 193.820312 142.15625 193.175781 141.859375 192.101562 141.882812 C 188.292969 141.945312 184.480469 141.933594 180.660156 141.894531 C 164.0625 141.757812 147.511719 141.101562 131.285156 137.195312 C 130.246094 136.949219 130 137.355469 129.949219 138.222656 C 129.777344 140.894531 129.53125 143.566406 129.429688 146.234375 C 129.320312 149.339844 128.863281 148.808594 132.078125 148.832031 C 132.894531 148.832031 133.339844 148.683594 133.523438 147.734375 C 134.082031 144.765625 134.886719 143.960938 137.878906 143.6875 C 141.550781 143.355469 144.335938 144.292969 144.804688 147.226562 C 145.003906 148.425781 145.609375 148.625 146.671875 148.597656 C 153.734375 148.402344 160.785156 148.648438 167.847656 148.882812 C 177.457031 149.203125 187.089844 149.5 196.789062 151.851562 Z M 114.019531 194.746094 L 241.015625 194.746094 C 239.261719 193.632812 237.578125 192.542969 236.03125 191.257812 C 235.539062 190.847656 235.007812 190.871094 234.4375 190.871094 C 197.445312 190.945312 160.449219 190.738281 123.445312 190.304688 C 122.988281 190.304688 122.515625 190.21875 122.109375 190.527344 C 119.683594 192.269531 116.925781 193.410156 114.019531 194.757812 Z M 228.128906 187.039062 C 228.003906 185.949219 227.472656 185.207031 225.878906 185.160156 C 220.375 184.984375 214.871094 184.652344 209.367188 184.367188 C 200.574219 183.921875 191.765625 183.488281 182.972656 183.03125 C 169.914062 182.351562 156.839844 181.644531 143.777344 180.964844 C 137.867188 180.65625 131.941406 180.398438 126.03125 180.125 C 121.503906 179.914062 116.976562 179.71875 112.449219 179.507812 C 111.90625 179.480469 111.324219 179.308594 111.238281 180.210938 C 110.988281 182.773438 110.445312 185.269531 109.542969 187.90625 C 114.515625 187.742188 119.289062 187.59375 124.0625 187.421875 C 124.59375 187.410156 125.078125 187.175781 125.4375 186.804688 C 127.203125 184.984375 129.371094 184.6875 131.804688 184.761719 C 148.539062 185.308594 165.273438 185.753906 182.007812 186.234375 C 191.382812 186.507812 200.746094 186.839844 210.121094 187.027344 C 216.09375 187.148438 222.058594 187.050781 228.105469 187.050781 Z M 193.140625 140.878906 C 192.816406 140.433594 192.757812 140.300781 192.644531 140.199219 C 186.175781 134.289062 179.410156 128.757812 171.855469 124.269531 C 167.339844 121.585938 162.628906 119.558594 157.332031 119.0625 C 150.851562 118.457031 144.472656 119.148438 138.164062 120.511719 C 126.425781 123.046875 115.195312 127.164062 104.027344 131.445312 C 103.78125 131.542969 103.359375 131.480469 103.433594 132.039062 C 108.839844 131.988281 114.230469 132.222656 119.574219 133.050781 C 122.257812 133.460938 124.929688 134.054688 127.613281 134.484375 C 128.035156 134.546875 128.960938 135.226562 128.984375 134.066406 C 129.046875 131.914062 129 129.761719 129 127.484375 C 124.089844 128.425781 119.3125 129.339844 114.550781 130.257812 C 114.550781 130.035156 114.601562 129.984375 114.640625 129.984375 C 124.917969 127.484375 135.195312 124.960938 145.632812 123.167969 C 153.488281 121.820312 160.996094 122.550781 168.058594 126.507812 C 174.648438 130.207031 180.5625 134.820312 186.25 139.742188 C 186.820312 140.238281 187.328125 140.878906 188.203125 140.878906 C 189.738281 140.878906 191.273438 140.878906 193.128906 140.878906 Z M 140.253906 173.101562 C 135.6875 166.804688 131.3125 160.609375 129.195312 153.136719 C 128.984375 152.40625 128.578125 152.296875 127.945312 152.53125 C 126.300781 153.125 124.644531 153.65625 123.171875 154.621094 C 121.019531 156.019531 120.550781 157.242188 121.121094 159.703125 C 123.285156 169.054688 130.480469 174.140625 140.253906 173.085938 Z M 249.847656 190.042969 C 258.726562 190.191406 266.398438 182.648438 266.546875 173.644531 C 266.695312 164.332031 259.335938 156.367188 250.464844 156.253906 C 241.277344 156.144531 233.832031 163.601562 233.695312 173.0625 C 233.558594 182.402344 240.683594 189.894531 249.835938 190.042969 Z M 104.261719 173.695312 C 104.347656 172.730469 104.125 171.617188 103.929688 170.503906 C 102.269531 161.363281 93.550781 155.375 84.953125 157.464844 C 78.3125 159.074219 73.738281 164.640625 72.859375 172.183594 C 71.746094 181.644531 79.425781 190.304688 88.851562 190.21875 C 97.199219 190.144531 104.238281 182.683594 104.273438 173.695312 Z M 220.054688 177.253906 L 220.054688 177.21875 C 218.554688 177.21875 217.074219 177.242188 215.574219 177.21875 C 214.859375 177.207031 214.5 177.304688 214.808594 178.160156 C 215.253906 179.421875 215.589844 180.707031 215.996094 181.980469 C 216.132812 182.402344 216.230469 182.808594 216.875 182.847656 C 219.90625 183.007812 222.933594 183.21875 225.953125 183.453125 C 226.695312 183.515625 226.832031 183.253906 226.683594 182.585938 C 226.359375 181.1875 225.988281 179.792969 225.78125 178.382812 C 225.644531 177.441406 225.234375 177.207031 224.355469 177.242188 C 222.921875 177.304688 221.476562 177.253906 220.027344 177.253906 Z M 161.722656 118.628906 C 164.558594 119.519531 166.992188 120.421875 169.257812 121.671875 C 170.753906 122.488281 172.175781 122.824219 173.90625 122.5625 C 177.53125 122.03125 181.203125 121.96875 185.089844 121.871094 C 181.835938 120.4375 166.027344 118.234375 161.722656 118.640625 Z M 205.582031 167.746094 C 204.65625 163.503906 200.882812 158.109375 198.296875 157.28125 C 198.816406 160.039062 198.878906 162.808594 198.964844 165.59375 C 198.976562 166.125 198.828125 166.839844 199.609375 166.964844 C 201.574219 167.261719 203.554688 167.496094 205.570312 167.757812 Z M 209.195312 175.683594 C 209.105469 174.746094 208.5625 174.25 208.042969 173.792969 C 205.605469 171.640625 202.515625 171.023438 199.507812 170.207031 C 199.347656 170.167969 199.113281 170.230469 198.976562 170.339844 C 198.804688 170.464844 198.839844 174.746094 198.988281 174.894531 C 199.285156 175.175781 199.671875 175.066406 200.015625 175.089844 C 201.402344 175.175781 202.773438 175.226562 204.160156 175.3125 C 205.816406 175.425781 207.488281 175.5625 209.195312 175.683594 Z M 307.445312 183.414062 C 308.558594 186.433594 308.917969 186.679688 311.675781 186.109375 C 313.679688 185.703125 315.660156 185.183594 317.636719 184.6875 C 318.070312 184.578125 318.839844 184.675781 318.726562 183.960938 C 318.640625 183.367188 317.972656 183.402344 317.453125 183.402344 C 314.175781 183.402344 310.898438 183.402344 307.445312 183.402344 Z M 317.476562 181.917969 C 317.316406 180.84375 316.796875 180.621094 316.019531 180.632812 C 312.9375 180.695312 309.859375 180.71875 306.777344 180.792969 C 306.382812 180.792969 305.726562 180.546875 305.628906 181.152344 C 305.554688 181.597656 306.074219 181.917969 306.394531 182.226562 C 306.691406 182.511719 307.050781 182.5 307.410156 182.476562 C 310.738281 182.289062 314.0625 182.105469 317.476562 181.90625 Z M 134.304688 147.90625 C 136.839844 144.46875 142.15625 144.949219 144.050781 148.03125 C 143.804688 145.628906 142.578125 144.554688 139.96875 144.429688 C 136.097656 144.246094 134.886719 144.9375 134.304688 147.90625 Z M 134.304688 147.90625 " fill-opacity="1" fill-rule="nonzero"/><path fill="#040327" d="M 295.96875 161.375 C 290.515625 161.472656 285.714844 159.519531 281.164062 156.761719 C 277.6875 154.660156 274.347656 152.359375 271.058594 149.972656 C 270.589844 149.625 269.847656 149.289062 270.132812 148.5625 C 270.378906 147.929688 271.109375 148.128906 271.652344 148.140625 C 282.09375 148.425781 291.269531 152.109375 299.371094 158.605469 C 300.039062 159.136719 301.238281 159.617188 300.804688 160.707031 C 300.433594 161.648438 299.285156 161.324219 298.441406 161.363281 C 297.625 161.410156 296.796875 161.363281 295.96875 161.363281 Z M 299.417969 160.015625 C 298.058594 158.875 296.722656 158.269531 295.164062 158.058594 C 290.800781 157.480469 286.644531 156.550781 283.207031 153.371094 C 280.164062 150.566406 276.378906 149.191406 271.839844 149.316406 C 280.445312 154.660156 288.289062 161.113281 299.433594 160.015625 Z M 299.417969 160.015625 " fill-opacity="1" fill-rule="nonzero"/><path fill="#040327" d="M 217.40625 156.242188 C 220.648438 156.242188 224.171875 156.179688 227.683594 156.277344 C 229.117188 156.316406 230.171875 155.957031 231.257812 154.96875 C 244.292969 143.21875 264.246094 146.285156 272.792969 161.300781 C 275.015625 165.222656 276.144531 170.132812 275.710938 174.449219 C 275.128906 172.679688 275.277344 171.035156 275.003906 169.464844 C 272.828125 157.046875 261.351562 147.84375 248.722656 148.414062 C 241.894531 148.722656 236.046875 151.320312 231.109375 155.980469 C 230.171875 156.871094 229.242188 157.269531 227.957031 157.15625 C 224.875 156.886719 221.796875 156.722656 218.71875 156.5 C 218.171875 156.464844 217.628906 156.304688 217.394531 156.253906 Z M 217.40625 156.242188 " fill-opacity="1" fill-rule="nonzero"/><path fill="#040327" d="M 61.875 139.707031 C 78.820312 135.597656 95.914062 134.796875 113.167969 137.675781 C 112.265625 138.875 110.976562 138.789062 109.816406 138.890625 C 105.746094 139.246094 101.6875 138.890625 97.644531 138.492188 C 90.753906 137.800781 83.867188 137.925781 76.976562 138.46875 C 72.316406 138.839844 67.664062 139.335938 63.039062 140.101562 C 62.667969 140.164062 62.273438 140.101562 61.886719 140.101562 C 61.886719 139.964844 61.886719 139.828125 61.886719 139.691406 Z M 61.875 139.707031 " fill-opacity="1" fill-rule="nonzero"/><path fill="#040327" d="M 68.195312 159.496094 C 73.105469 152.234375 80.09375 148.710938 88.714844 148.980469 C 98.226562 149.289062 106.894531 155.460938 110.023438 163.589844 C 105.363281 156.21875 99.511719 150.453125 90.285156 149.6875 C 81.171875 148.933594 73.796875 152.285156 68.195312 159.507812 Z M 68.195312 159.496094 " fill-opacity="1" fill-rule="nonzero"/><path fill="#040327" d="M 235.648438 173.421875 C 235.648438 164.886719 242.515625 157.589844 250.527344 157.566406 C 258.355469 157.539062 265.222656 164.777344 265.222656 173.039062 C 265.222656 181.707031 258.28125 188.980469 250.046875 188.90625 C 242.179688 188.84375 235.636719 181.808594 235.648438 173.410156 Z M 253.0625 173.644531 C 253.0625 172.136719 251.703125 170.785156 250.21875 170.8125 C 249.03125 170.835938 247.722656 172.257812 247.734375 173.496094 C 247.757812 174.980469 248.90625 176.15625 250.34375 176.140625 C 251.914062 176.140625 253.050781 175.078125 253.0625 173.632812 Z M 260.582031 172.121094 C 257.132812 175.027344 256.761719 176.75 258.789062 179.125 C 259.359375 176.921875 259.914062 174.71875 260.582031 172.121094 Z M 252.484375 177.476562 C 252.433594 177.789062 252.335938 177.972656 252.382812 178.085938 C 253.582031 180.769531 255.375 183.09375 256.933594 185.554688 C 257.082031 185.800781 257.292969 185.9375 257.554688 185.714844 C 257.800781 185.503906 257.703125 185.246094 257.554688 185.023438 C 256.859375 183.945312 256.207031 182.847656 255.4375 181.820312 C 254.425781 180.457031 253.816406 178.789062 252.46875 177.492188 Z M 254.398438 172.085938 C 254.929688 172.566406 255.191406 172.433594 255.402344 172.332031 C 257.898438 171.269531 260.398438 170.191406 262.898438 169.105469 C 263.082031 169.03125 263.292969 168.917969 263.390625 168.757812 C 263.476562 168.621094 263.429688 168.375 263.390625 168.203125 C 263.390625 168.152344 263.121094 168.117188 263.019531 168.164062 C 260.199219 169.4375 257.378906 170.726562 254.410156 172.085938 Z M 250.925781 169.117188 C 251.121094 165.890625 251.234375 162.660156 250.515625 159.46875 C 250.070312 162.710938 250.515625 165.914062 250.925781 169.117188 Z M 258.789062 184.8125 C 257.441406 181.90625 255.847656 179.148438 253.644531 176.773438 C 254.929688 179.71875 256.847656 182.265625 258.789062 184.8125 Z M 241.351562 184.480469 C 241.511719 184.589844 241.671875 184.703125 241.820312 184.800781 C 243.835938 182.375 245.480469 179.71875 247.027344 176.984375 C 246.878906 176.882812 246.730469 176.785156 246.59375 176.6875 C 244.851562 179.285156 243.09375 181.882812 241.351562 184.480469 Z M 238.234375 169.242188 C 237.925781 169.253906 237.628906 169.179688 237.554688 169.527344 C 237.492188 169.859375 237.800781 169.945312 238.011719 170.03125 C 240.347656 170.910156 242.6875 171.765625 245.023438 172.605469 C 245.273438 172.691406 245.644531 172.953125 245.804688 172.519531 C 245.964844 172.109375 245.59375 172.023438 245.308594 171.914062 C 244.121094 171.46875 242.921875 171.023438 241.734375 170.5625 C 240.546875 170.117188 239.359375 169.648438 238.222656 169.214844 Z M 242.75 185.441406 C 243.601562 185.441406 243.863281 184.886719 244.171875 184.417969 C 245.234375 182.785156 246.324219 181.175781 247.289062 179.496094 C 247.597656 178.949219 248.636719 178.234375 248.042969 177.835938 C 247.261719 177.316406 247.101562 178.605469 246.78125 179.074219 C 245.359375 181.152344 244.085938 183.316406 242.75 185.441406 Z M 246.792969 171.109375 C 243.835938 169.625 241.015625 168.933594 238.382812 167.78125 C 238.171875 167.683594 237.949219 167.71875 237.886719 167.953125 C 237.789062 168.386719 238.171875 168.4375 238.433594 168.535156 C 240.386719 169.289062 242.339844 170.042969 244.320312 170.761719 C 244.960938 170.996094 245.570312 171.441406 246.792969 171.109375 Z M 262.996094 167.101562 C 262.910156 166.929688 262.835938 166.765625 262.75 166.59375 C 259.804688 167.746094 256.949219 169.082031 254.226562 170.710938 C 254.289062 170.847656 254.363281 170.984375 254.425781 171.121094 C 257.28125 169.785156 260.136719 168.4375 262.984375 167.101562 Z M 249.464844 169.464844 L 249.464844 159.507812 C 249.265625 159.507812 249.070312 159.53125 248.871094 159.542969 C 249.070312 162.722656 248.773438 165.925781 249.464844 169.464844 Z M 249.464844 169.464844 " fill-opacity="1" fill-rule="nonzero"/><path fill="#040327" d="M 74.824219 173.707031 C 75.035156 168.992188 76.617188 164.875 80.253906 161.722656 C 85.460938 157.195312 91.78125 157.121094 97.148438 161.4375 C 104.632812 167.472656 105.128906 179.050781 97.890625 185.355469 C 88.492188 193.570312 78.324219 187.039062 75.578125 178.726562 C 75.046875 177.105469 74.761719 175.425781 74.824219 173.695312 Z M 88.292969 176.636719 C 89.65625 176.660156 90.917969 175.472656 90.941406 174.140625 C 90.964844 172.730469 89.742188 171.429688 88.34375 171.378906 C 87.019531 171.332031 85.832031 172.53125 85.785156 173.953125 C 85.746094 175.191406 87.082031 176.613281 88.292969 176.636719 Z M 90.769531 177.949219 C 90.222656 178.160156 90.0625 178.257812 90.335938 178.679688 C 91.832031 181.003906 93.265625 183.367188 94.738281 185.703125 C 94.886719 185.9375 95.046875 186.347656 95.417969 186.097656 C 95.777344 185.863281 95.492188 185.554688 95.34375 185.308594 C 93.972656 183.082031 92.597656 180.855469 91.226562 178.640625 C 91.066406 178.382812 90.890625 178.132812 90.769531 177.949219 Z M 92.699219 172.851562 C 92.859375 172.890625 93.019531 172.988281 93.144531 172.953125 C 95.765625 171.949219 98.375 170.921875 100.996094 169.910156 C 101.304688 169.785156 101.589844 169.597656 101.355469 169.242188 C 101.121094 168.882812 100.796875 169.15625 100.539062 169.265625 C 98.363281 170.15625 96.183594 171.046875 94.019531 171.960938 C 93.539062 172.160156 92.871094 172.136719 92.699219 172.863281 Z M 96.421875 185.417969 C 96.542969 185.332031 96.65625 185.257812 96.777344 185.171875 C 96.332031 183.6875 92.773438 178.171875 91.398438 177.527344 Z M 88.800781 160.261719 C 88.367188 163.429688 88.652344 166.570312 89.171875 169.699219 C 89.519531 166.53125 89.210938 163.390625 88.800781 160.261719 Z M 76.394531 170.117188 C 78.832031 170.984375 81.132812 171.8125 83.445312 172.582031 C 83.71875 172.667969 84.199219 173.234375 84.449219 172.542969 C 84.65625 171.9375 84.050781 171.914062 83.71875 171.789062 C 81.789062 171.132812 79.859375 170.476562 77.917969 169.882812 C 77.523438 169.761719 77.039062 169.527344 76.410156 170.117188 Z M 81.429688 185.738281 C 83.433594 183.871094 86.289062 178.9375 86.03125 177.789062 C 84.449219 180.347656 82.777344 182.683594 81.429688 185.738281 Z M 87.441406 169.625 C 87.527344 169.625 87.613281 169.613281 87.6875 169.601562 L 87.6875 160.136719 C 87.601562 160.136719 87.515625 160.164062 87.441406 160.175781 L 87.441406 169.636719 Z M 100.898438 168.003906 C 100.824219 167.832031 100.75 167.644531 100.675781 167.472656 C 97.878906 168.683594 95.097656 169.882812 92.300781 171.097656 C 92.363281 171.246094 92.425781 171.378906 92.488281 171.527344 C 95.382812 170.578125 98.1875 169.390625 100.898438 168.015625 Z M 84.78125 171.195312 C 81.640625 169.328125 77.769531 168.203125 76.78125 168.796875 C 79.539062 169.539062 82.035156 170.785156 84.78125 171.195312 Z M 85.164062 177.503906 C 84.210938 177.566406 84.0625 178.28125 83.71875 178.800781 C 82.65625 180.433594 81.652344 182.089844 80.625 183.75 C 80.464844 184.007812 80.28125 184.332031 80.578125 184.578125 C 80.835938 184.789062 81.023438 184.539062 81.15625 184.304688 C 82.492188 182.042969 83.828125 179.765625 85.164062 177.503906 Z M 85.164062 177.503906 " fill-opacity="1" fill-rule="nonzero"/><g fill="#c67b17" fill-opacity="1"><g transform="translate(49.155064, 227.391509)"><g><path d="M 15.28125 0 L 13.625 0 L 0.40625 -19.5625 L 4.15625 -19.5625 L 14.453125 -4.328125 L 24.75 -19.5625 L 28.546875 -19.5625 Z M 15.28125 0 "/></g></g></g><g fill="#c67b17" fill-opacity="1"><g transform="translate(78.106107, 227.391509)"><g><path d="M 24.484375 0 L 2.734375 0 L 2.734375 -19.5625 L 24.484375 -19.5625 L 24.484375 -16.46875 L 5.84375 -16.46875 L 5.84375 -11.34375 L 22.28125 -11.34375 L 22.28125 -8.21875 L 5.84375 -8.21875 L 5.84375 -3.109375 L 24.484375 -3.109375 Z M 24.484375 0 "/></g></g></g><g fill="#c67b17" fill-opacity="1"><g transform="translate(104.629789, 227.391509)"><g><path d="M 20.640625 0 L 20.640625 -3.109375 L 5.84375 -3.109375 L 5.84375 -19.5625 L 2.734375 -19.5625 L 2.734375 0 Z M 20.640625 0 "/></g></g></g><g fill="#c67b17" fill-opacity="1"><g transform="translate(126.216932, 227.391509)"><g><path d="M 19.140625 0 C 20.859375 0 22.320312 -0.601562 23.53125 -1.8125 C 24.75 -3.03125 25.359375 -4.5 25.359375 -6.21875 L 25.359375 -19.5625 L 22.25 -19.5625 L 22.25 -6.21875 C 22.25 -5.351562 21.941406 -4.617188 21.328125 -4.015625 C 20.722656 -3.410156 19.992188 -3.109375 19.140625 -3.109375 L 8.265625 -3.109375 C 7.398438 -3.109375 6.664062 -3.410156 6.0625 -4.015625 C 5.457031 -4.617188 5.15625 -5.351562 5.15625 -6.21875 L 5.15625 -19.5625 L 2.046875 -19.5625 L 2.046875 -6.21875 C 2.046875 -4.5 2.648438 -3.03125 3.859375 -1.8125 C 5.078125 -0.601562 6.546875 0 8.265625 0 Z M 19.140625 0 "/></g></g></g><g fill="#c67b17" fill-opacity="1"><g transform="translate(153.613373, 227.391509)"><g><path d="M 27.34375 0 L 22.625 0 L 13.859375 -7.703125 L 5.109375 0 L 0.40625 0 L 11.515625 -9.78125 L 0.40625 -19.5625 L 5.109375 -19.5625 L 13.859375 -11.859375 L 22.625 -19.5625 L 27.34375 -19.5625 L 16.203125 -9.78125 Z M 27.34375 0 "/></g></g></g><g fill="#c67b17" fill-opacity="1"><g transform="translate(181.364372, 227.391509)"><g><path d="M 24.484375 0 L 2.734375 0 L 2.734375 -19.5625 L 24.484375 -19.5625 L 24.484375 -16.46875 L 5.84375 -16.46875 L 5.84375 -11.34375 L 22.28125 -11.34375 L 22.28125 -8.21875 L 5.84375 -8.21875 L 5.84375 -3.109375 L 24.484375 -3.109375 Z M 24.484375 0 "/></g></g></g><g fill="#c67b17" fill-opacity="1"><g transform="translate(207.888055, 227.391509)"><g/></g></g><g fill="#c67b17" fill-opacity="1"><g transform="translate(214.815575, 227.391509)"><g><path d="M 20.6875 0 L 6.71875 0 C 5.425781 0 4.320312 -0.453125 3.40625 -1.359375 C 2.5 -2.273438 2.046875 -3.378906 2.046875 -4.671875 L 5.15625 -4.671875 C 5.15625 -4.242188 5.304688 -3.875 5.609375 -3.5625 C 5.921875 -3.257812 6.289062 -3.109375 6.71875 -3.109375 L 20.6875 -3.109375 C 21.113281 -3.109375 21.476562 -3.257812 21.78125 -3.5625 C 22.09375 -3.875 22.25 -4.242188 22.25 -4.671875 L 22.25 -6.671875 C 22.25 -7.109375 22.09375 -7.472656 21.78125 -7.765625 C 21.476562 -8.066406 21.113281 -8.21875 20.6875 -8.21875 L 6.71875 -8.21875 C 5.425781 -8.21875 4.320312 -8.675781 3.40625 -9.59375 C 2.5 -10.507812 2.046875 -11.609375 2.046875 -12.890625 L 2.046875 -14.90625 C 2.046875 -16.1875 2.5 -17.28125 3.40625 -18.1875 C 4.320312 -19.101562 5.425781 -19.5625 6.71875 -19.5625 L 20.6875 -19.5625 C 21.976562 -19.5625 23.078125 -19.101562 23.984375 -18.1875 C 24.898438 -17.28125 25.359375 -16.1875 25.359375 -14.90625 L 22.25 -14.90625 C 22.25 -15.332031 22.09375 -15.695312 21.78125 -16 C 21.476562 -16.300781 21.113281 -16.453125 20.6875 -16.453125 L 6.71875 -16.453125 C 6.289062 -16.453125 5.921875 -16.300781 5.609375 -16 C 5.304688 -15.695312 5.15625 -15.332031 5.15625 -14.90625 L 5.15625 -12.890625 C 5.15625 -12.460938 5.304688 -12.097656 5.609375 -11.796875 C 5.921875 -11.492188 6.289062 -11.34375 6.71875 -11.34375 L 20.6875 -11.34375 C 21.976562 -11.34375 23.078125 -10.882812 23.984375 -9.96875 C 24.898438 -9.0625 25.359375 -7.960938 25.359375 -6.671875 L 25.359375 -4.671875 C 25.359375 -3.378906 24.898438 -2.273438 23.984375 -1.359375 C 23.078125 -0.453125 21.976562 0 20.6875 0 Z M 20.6875 0 "/></g></g></g><g fill="#c67b17" fill-opacity="1"><g transform="translate(242.212016, 227.391509)"><g><path d="M 25.40625 0 L 22.296875 0 L 22.296875 -8.234375 L 5.84375 -8.234375 L 5.84375 0 L 2.734375 0 L 2.734375 -19.5625 L 5.84375 -19.5625 L 5.84375 -11.34375 L 22.296875 -11.34375 L 22.296875 -19.5625 L 25.40625 -19.5625 Z M 25.40625 0 "/></g></g></g><g fill="#c67b17" fill-opacity="1"><g transform="translate(270.344848, 227.391509)"><g><path d="M 19.140625 0 C 20.859375 0 22.320312 -0.601562 23.53125 -1.8125 C 24.75 -3.03125 25.359375 -4.5 25.359375 -6.21875 L 25.359375 -13.359375 C 25.359375 -15.066406 24.75 -16.523438 23.53125 -17.734375 C 22.320312 -18.953125 20.859375 -19.5625 19.140625 -19.5625 L 8.265625 -19.5625 C 6.546875 -19.5625 5.078125 -18.953125 3.859375 -17.734375 C 2.648438 -16.523438 2.046875 -15.066406 2.046875 -13.359375 L 2.046875 -6.21875 C 2.046875 -4.5 2.648438 -3.03125 3.859375 -1.8125 C 5.078125 -0.601562 6.546875 0 8.265625 0 Z M 19.140625 -3.109375 L 8.265625 -3.109375 C 7.398438 -3.109375 6.664062 -3.410156 6.0625 -4.015625 C 5.457031 -4.617188 5.15625 -5.351562 5.15625 -6.21875 L 5.15625 -13.359375 C 5.15625 -14.210938 5.457031 -14.941406 6.0625 -15.546875 C 6.664062 -16.160156 7.398438 -16.46875 8.265625 -16.46875 L 19.140625 -16.46875 C 19.992188 -16.46875 20.722656 -16.160156 21.328125 -15.546875 C 21.941406 -14.941406 22.25 -14.210938 22.25 -13.359375 L 22.25 -6.21875 C 22.25 -5.351562 21.941406 -4.617188 21.328125 -4.015625 C 20.722656 -3.410156 19.992188 -3.109375 19.140625 -3.109375 Z M 19.140625 -3.109375 "/></g></g></g><g fill="#c67b17" fill-opacity="1"><g transform="translate(297.741276, 227.391509)"><g><path d="M 5.84375 0 L 2.734375 0 L 2.734375 -19.5625 L 21.375 -19.5625 C 22.65625 -19.5625 23.753906 -19.101562 24.671875 -18.1875 C 25.585938 -17.28125 26.046875 -16.1875 26.046875 -14.90625 L 26.046875 -11.734375 C 26.046875 -10.441406 25.585938 -9.335938 24.671875 -8.421875 C 23.753906 -7.515625 22.65625 -7.0625 21.375 -7.0625 L 5.84375 -7.0625 Z M 21.375 -10.171875 C 21.800781 -10.171875 22.164062 -10.320312 22.46875 -10.625 C 22.78125 -10.9375 22.9375 -11.304688 22.9375 -11.734375 L 22.9375 -14.90625 C 22.9375 -15.332031 22.78125 -15.695312 22.46875 -16 C 22.164062 -16.3125 21.800781 -16.46875 21.375 -16.46875 L 5.84375 -16.46875 L 5.84375 -10.171875 Z M 21.375 -10.171875 "/></g></g></g><g fill="#040327" fill-opacity="1"><g transform="translate(115.143395, 242.908724)"><g><path d="M 2.265625 0 L 1.0625 0 L 1.0625 -7.609375 L 8.328125 -7.609375 C 8.816406 -7.609375 9.238281 -7.429688 9.59375 -7.078125 C 9.957031 -6.722656 10.140625 -6.296875 10.140625 -5.796875 L 10.140625 -4.5625 C 10.140625 -4.0625 9.957031 -3.632812 9.59375 -3.28125 C 9.238281 -2.925781 8.816406 -2.75 8.328125 -2.75 L 2.265625 -2.75 Z M 8.328125 -3.96875 C 8.492188 -3.96875 8.632812 -4.023438 8.75 -4.140625 C 8.863281 -4.253906 8.921875 -4.394531 8.921875 -4.5625 L 8.921875 -5.796875 C 8.921875 -5.960938 8.863281 -6.101562 8.75 -6.21875 C 8.632812 -6.34375 8.492188 -6.40625 8.328125 -6.40625 L 2.265625 -6.40625 L 2.265625 -3.96875 Z M 8.328125 -3.96875 "/></g></g></g><g fill="#040327" fill-opacity="1"><g transform="translate(127.492231, 242.908724)"><g><path d="M 10.140625 0 L 8.921875 0 L 8.921875 -2.140625 C 8.921875 -2.304688 8.863281 -2.445312 8.75 -2.5625 C 8.632812 -2.6875 8.492188 -2.75 8.328125 -2.75 L 2.265625 -2.75 L 2.265625 0 L 1.0625 0 L 1.0625 -7.609375 L 8.328125 -7.609375 C 8.816406 -7.609375 9.238281 -7.429688 9.59375 -7.078125 C 9.957031 -6.722656 10.140625 -6.296875 10.140625 -5.796875 L 10.140625 -4.5625 C 10.140625 -4.09375 9.984375 -3.691406 9.671875 -3.359375 C 9.984375 -3.015625 10.140625 -2.609375 10.140625 -2.140625 Z M 8.328125 -3.96875 C 8.492188 -3.96875 8.632812 -4.023438 8.75 -4.140625 C 8.863281 -4.253906 8.921875 -4.394531 8.921875 -4.5625 L 8.921875 -5.796875 C 8.921875 -5.960938 8.863281 -6.101562 8.75 -6.21875 C 8.632812 -6.34375 8.492188 -6.40625 8.328125 -6.40625 L 2.265625 -6.40625 L 2.265625 -3.96875 Z M 8.328125 -3.96875 "/></g></g></g><g fill="#040327" fill-opacity="1"><g transform="translate(139.841068, 242.908724)"><g><path d="M 9.53125 0 L 1.0625 0 L 1.0625 -7.609375 L 9.53125 -7.609375 L 9.53125 -6.40625 L 2.265625 -6.40625 L 2.265625 -4.40625 L 8.671875 -4.40625 L 8.671875 -3.203125 L 2.265625 -3.203125 L 2.265625 -1.203125 L 9.53125 -1.203125 Z M 9.53125 0 "/></g></g></g><g fill="#040327" fill-opacity="1"><g transform="translate(151.584556, 242.908724)"><g><path d="M 11.53125 0 L 10.328125 0 L 10.328125 -5.140625 L 6.609375 0 L 5.984375 0 L 2.265625 -5.140625 L 2.265625 0 L 1.0625 0 L 1.0625 -7.609375 L 1.96875 -7.609375 L 6.296875 -1.640625 L 10.625 -7.609375 L 11.53125 -7.609375 Z M 11.53125 0 "/></g></g></g><g fill="#040327" fill-opacity="1"><g transform="translate(165.600753, 242.908724)"><g><path d="M 2.265625 0 L 2.265625 -7.609375 L 1.0625 -7.609375 L 1.0625 0 Z M 2.265625 0 "/></g></g></g><g fill="#040327" fill-opacity="1"><g transform="translate(170.350897, 242.908724)"><g><path d="M 7.453125 0 C 8.117188 0 8.6875 -0.234375 9.15625 -0.703125 C 9.632812 -1.179688 9.875 -1.753906 9.875 -2.421875 L 9.875 -7.609375 L 8.65625 -7.609375 L 8.65625 -2.421875 C 8.65625 -2.085938 8.535156 -1.800781 8.296875 -1.5625 C 8.066406 -1.320312 7.785156 -1.203125 7.453125 -1.203125 L 3.21875 -1.203125 C 2.882812 -1.203125 2.597656 -1.320312 2.359375 -1.5625 C 2.117188 -1.800781 2 -2.085938 2 -2.421875 L 2 -7.609375 L 0.796875 -7.609375 L 0.796875 -2.421875 C 0.796875 -1.753906 1.03125 -1.179688 1.5 -0.703125 C 1.976562 -0.234375 2.550781 0 3.21875 0 Z M 7.453125 0 "/></g></g></g><g fill="#040327" fill-opacity="1"><g transform="translate(182.434232, 242.908724)"><g><path d="M 11.53125 0 L 10.328125 0 L 10.328125 -5.140625 L 6.609375 0 L 5.984375 0 L 2.265625 -5.140625 L 2.265625 0 L 1.0625 0 L 1.0625 -7.609375 L 1.96875 -7.609375 L 6.296875 -1.640625 L 10.625 -7.609375 L 11.53125 -7.609375 Z M 11.53125 0 "/></g></g></g><g fill="#040327" fill-opacity="1"><g transform="translate(196.450429, 242.908724)"><g/></g></g><g fill="#040327" fill-opacity="1"><g transform="translate(200.563366, 242.908724)"><g><path d="M 7.453125 0 C 8.097656 0 8.664062 -0.234375 9.15625 -0.703125 C 9.625 -1.179688 9.863281 -1.753906 9.875 -2.421875 L 9.875 -3.203125 C 9.875 -3.441406 9.785156 -3.644531 9.609375 -3.8125 C 9.441406 -3.976562 9.238281 -4.0625 9 -4.0625 L 5.328125 -4.0625 L 5.328125 -2.859375 L 8.65625 -2.859375 L 8.65625 -2.421875 C 8.65625 -2.097656 8.539062 -1.8125 8.3125 -1.5625 C 8.0625 -1.320312 7.773438 -1.203125 7.453125 -1.203125 L 3.21875 -1.203125 C 2.882812 -1.203125 2.597656 -1.320312 2.359375 -1.5625 C 2.117188 -1.800781 2 -2.085938 2 -2.421875 L 2 -5.203125 C 2 -5.535156 2.117188 -5.816406 2.359375 -6.046875 C 2.597656 -6.285156 2.882812 -6.40625 3.21875 -6.40625 L 7.453125 -6.40625 C 7.785156 -6.40625 8.066406 -6.285156 8.296875 -6.046875 C 8.535156 -5.816406 8.65625 -5.535156 8.65625 -5.203125 L 9.875 -5.203125 C 9.875 -5.867188 9.632812 -6.4375 9.15625 -6.90625 C 8.6875 -7.375 8.117188 -7.609375 7.453125 -7.609375 L 3.21875 -7.609375 C 2.550781 -7.609375 1.976562 -7.375 1.5 -6.90625 C 1.03125 -6.4375 0.796875 -5.867188 0.796875 -5.203125 L 0.796875 -2.421875 C 0.796875 -1.753906 1.03125 -1.179688 1.5 -0.703125 C 1.976562 -0.234375 2.550781 0 3.21875 0 Z M 7.453125 0 "/></g></g></g><g fill="#040327" fill-opacity="1"><g transform="translate(212.646696, 242.908724)"><g><path d="M 7.453125 0 C 8.117188 0 8.6875 -0.234375 9.15625 -0.703125 C 9.632812 -1.179688 9.875 -1.753906 9.875 -2.421875 L 9.875 -5.203125 C 9.875 -5.867188 9.632812 -6.4375 9.15625 -6.90625 C 8.6875 -7.375 8.117188 -7.609375 7.453125 -7.609375 L 3.21875 -7.609375 C 2.550781 -7.609375 1.976562 -7.375 1.5 -6.90625 C 1.03125 -6.4375 0.796875 -5.867188 0.796875 -5.203125 L 0.796875 -2.421875 C 0.796875 -1.753906 1.03125 -1.179688 1.5 -0.703125 C 1.976562 -0.234375 2.550781 0 3.21875 0 Z M 7.453125 -1.203125 L 3.21875 -1.203125 C 2.882812 -1.203125 2.597656 -1.320312 2.359375 -1.5625 C 2.117188 -1.800781 2 -2.085938 2 -2.421875 L 2 -5.203125 C 2 -5.535156 2.117188 -5.816406 2.359375 -6.046875 C 2.597656 -6.285156 2.882812 -6.40625 3.21875 -6.40625 L 7.453125 -6.40625 C 7.785156 -6.40625 8.066406 -6.285156 8.296875 -6.046875 C 8.535156 -5.816406 8.65625 -5.535156 8.65625 -5.203125 L 8.65625 -2.421875 C 8.65625 -2.085938 8.535156 -1.800781 8.296875 -1.5625 C 8.066406 -1.320312 7.785156 -1.203125 7.453125 -1.203125 Z M 7.453125 -1.203125 "/></g></g></g><g fill="#040327" fill-opacity="1"><g transform="translate(224.730031, 242.908724)"><g><path d="M 7.453125 0 C 8.117188 0 8.6875 -0.234375 9.15625 -0.703125 C 9.632812 -1.179688 9.875 -1.753906 9.875 -2.421875 L 9.875 -5.203125 C 9.875 -5.867188 9.632812 -6.4375 9.15625 -6.90625 C 8.6875 -7.375 8.117188 -7.609375 7.453125 -7.609375 L 3.21875 -7.609375 C 2.550781 -7.609375 1.976562 -7.375 1.5 -6.90625 C 1.03125 -6.4375 0.796875 -5.867188 0.796875 -5.203125 L 0.796875 -2.421875 C 0.796875 -1.753906 1.03125 -1.179688 1.5 -0.703125 C 1.976562 -0.234375 2.550781 0 3.21875 0 Z M 7.453125 -1.203125 L 3.21875 -1.203125 C 2.882812 -1.203125 2.597656 -1.320312 2.359375 -1.5625 C 2.117188 -1.800781 2 -2.085938 2 -2.421875 L 2 -5.203125 C 2 -5.535156 2.117188 -5.816406 2.359375 -6.046875 C 2.597656 -6.285156 2.882812 -6.40625 3.21875 -6.40625 L 7.453125 -6.40625 C 7.785156 -6.40625 8.066406 -6.285156 8.296875 -6.046875 C 8.535156 -5.816406 8.65625 -5.535156 8.65625 -5.203125 L 8.65625 -2.421875 C 8.65625 -2.085938 8.535156 -1.800781 8.296875 -1.5625 C 8.066406 -1.320312 7.785156 -1.203125 7.453125 -1.203125 Z M 7.453125 -1.203125 "/></g></g></g><g fill="#040327" fill-opacity="1"><g transform="translate(236.813366, 242.908724)"><g><path d="M 7.71875 0 C 8.382812 0 8.953125 -0.234375 9.421875 -0.703125 C 9.898438 -1.179688 10.140625 -1.753906 10.140625 -2.421875 L 10.140625 -5.203125 C 10.140625 -5.867188 9.898438 -6.4375 9.421875 -6.90625 C 8.953125 -7.375 8.382812 -7.609375 7.71875 -7.609375 L 1.0625 -7.609375 L 1.0625 0 Z M 7.71875 -1.203125 L 2.265625 -1.203125 L 2.265625 -6.40625 L 7.71875 -6.40625 C 8.050781 -6.40625 8.332031 -6.285156 8.5625 -6.046875 C 8.800781 -5.816406 8.921875 -5.535156 8.921875 -5.203125 L 8.921875 -2.421875 C 8.921875 -2.085938 8.800781 -1.800781 8.5625 -1.5625 C 8.332031 -1.320312 8.050781 -1.203125 7.71875 -1.203125 Z M 7.71875 -1.203125 "/></g></g></g><g fill="#040327" fill-opacity="1"><g transform="translate(249.162204, 242.908724)"><g><path d="M 8.0625 0 L 2.609375 0 C 2.109375 0 1.679688 -0.175781 1.328125 -0.53125 C 0.972656 -0.882812 0.796875 -1.3125 0.796875 -1.8125 L 2 -1.8125 C 2 -1.644531 2.054688 -1.5 2.171875 -1.375 C 2.296875 -1.257812 2.441406 -1.203125 2.609375 -1.203125 L 8.0625 -1.203125 C 8.226562 -1.203125 8.367188 -1.257812 8.484375 -1.375 C 8.597656 -1.5 8.65625 -1.644531 8.65625 -1.8125 L 8.65625 -2.59375 C 8.65625 -2.757812 8.597656 -2.898438 8.484375 -3.015625 C 8.367188 -3.140625 8.226562 -3.203125 8.0625 -3.203125 L 2.609375 -3.203125 C 2.109375 -3.203125 1.679688 -3.378906 1.328125 -3.734375 C 0.972656 -4.085938 0.796875 -4.515625 0.796875 -5.015625 L 0.796875 -5.796875 C 0.796875 -6.296875 0.972656 -6.722656 1.328125 -7.078125 C 1.679688 -7.429688 2.109375 -7.609375 2.609375 -7.609375 L 8.0625 -7.609375 C 8.550781 -7.609375 8.972656 -7.429688 9.328125 -7.078125 C 9.691406 -6.722656 9.875 -6.296875 9.875 -5.796875 L 8.65625 -5.796875 C 8.65625 -5.960938 8.597656 -6.101562 8.484375 -6.21875 C 8.367188 -6.34375 8.226562 -6.40625 8.0625 -6.40625 L 2.609375 -6.40625 C 2.441406 -6.40625 2.296875 -6.34375 2.171875 -6.21875 C 2.054688 -6.101562 2 -5.960938 2 -5.796875 L 2 -5.015625 C 2 -4.847656 2.054688 -4.703125 2.171875 -4.578125 C 2.296875 -4.460938 2.441406 -4.40625 2.609375 -4.40625 L 8.0625 -4.40625 C 8.550781 -4.40625 8.972656 -4.226562 9.328125 -3.875 C 9.691406 -3.519531 9.875 -3.09375 9.875 -2.59375 L 9.875 -1.8125 C 9.875 -1.3125 9.691406 -0.882812 9.328125 -0.53125 C 8.972656 -0.175781 8.550781 0 8.0625 0 Z M 8.0625 0 "/></g></g></g><g clip-path="url(#529c81df88)"><g clip-path="url(#fba6dee206)"><path fill="#c67b17" d="M 180.519531 247.890625 L 194.5 247.890625 L 194.5 261.195312 L 180.519531 261.195312 Z M 180.519531 247.890625 " fill-opacity="1" fill-rule="nonzero"/></g></g><g clip-path="url(#3f18e99067)"><g clip-path="url(#9e6fff428d)"><path fill="#c67b17" d="M 162.222656 247.890625 L 173.574219 247.890625 L 173.574219 258.699219 L 162.222656 258.699219 Z M 162.222656 247.890625 " fill-opacity="1" fill-rule="nonzero"/></g></g><g clip-path="url(#828b16f250)"><g clip-path="url(#8f2ef257b1)"><path fill="#c67b17" d="M 201.230469 247.890625 L 212.582031 247.890625 L 212.582031 258.699219 L 201.230469 258.699219 Z M 201.230469 247.890625 " fill-opacity="1" fill-rule="nonzero"/></g></g></svg>